<?xml version="1.0" ?><!DOCTYPE svg  PUBLIC '-//W3C//DTD SVG 1.1//EN'  'http://www.w3.org/Graphics/SVG/1.1/DTD/svg11.dtd'><svg height="512px" style="enable-background:new 0 0 512 512;" version="1.1" viewBox="0 0 512 512" width="512px" xml:space="preserve" xmlns="http://www.w3.org/2000/svg" xmlns:xlink="http://www.w3.org/1999/xlink"><g id="_x34_1-skype_x2C__chat"><g><g><path d="M486.129,258.485c0-124.26-101.885-225.02-227.592-225.02c-13.244,0-26.246,1.139-38.926,3.289     c-20.34-12.646-44.409-20.004-70.21-20.004c-72.918,0-132.004,58.406-132.004,130.509c0,24.079,6.624,46.592,18.136,66.004     c-3.014,14.593-4.621,29.758-4.621,45.222c0,124.289,101.905,225.042,227.592,225.042c14.26,0,28.158-1.322,41.695-3.769     c18.613,9.866,39.814,15.491,62.428,15.491c72.891,0,131.977-58.44,131.977-130.486c0-20.813-4.949-40.486-13.721-57.955     C484.344,291.199,486.129,275.077,486.129,258.485L486.129,258.485z M486.129,258.485" style="fill:#03ACF8;"/><path d="M375.275,366.021c-10.533,14.742-26.068,26.409-46.262,34.662     c-19.957,8.196-43.848,12.413-71.105,12.413c-32.691,0-60.1-5.682-81.511-16.927c-15.304-8.169-27.886-19.202-37.463-32.896     c-9.693-13.76-14.555-27.426-14.555-40.674c0-8.194,3.192-15.371,9.488-21.206c6.234-5.83,14.226-8.727,23.771-8.727     c7.809,0,14.55,2.299,20.039,6.875c5.221,4.429,9.725,10.945,13.336,19.29c4.021,9.149,8.408,16.865,13.031,22.874     c4.504,5.893,10.918,10.801,19.115,14.659c8.264,3.828,19.387,5.831,33.051,5.831c18.816,0,34.266-4.008,45.84-11.813     c11.363-7.628,16.85-16.839,16.85-28.084c0-8.856-2.891-15.848-8.764-21.323c-6.211-5.742-14.381-10.195-24.283-13.276     c-10.348-3.173-24.396-6.642-41.754-10.23c-23.65-4.993-43.725-10.881-59.65-17.641c-16.317-6.881-29.498-16.392-39.102-28.261     c-9.783-12.141-14.732-27.309-14.732-45.131c0-16.982,5.188-32.296,15.449-45.516c10.168-13.125,25.022-23.386,44.204-30.357     c18.877-6.904,41.334-10.373,66.773-10.373c20.311,0,38.18,2.33,53.119,6.936c15.004,4.604,27.646,10.825,37.584,18.514     c10.021,7.774,17.475,15.996,22.125,24.609c4.717,8.676,7.135,17.321,7.135,25.658c0,8.045-3.131,15.375-9.344,21.713     c-6.262,6.405-14.131,9.629-23.381,9.629c-8.408,0-15.031-2.063-19.592-6.038c-4.262-3.739-8.711-9.572-13.604-17.882     c-5.664-10.651-12.555-19.052-20.43-25.006c-7.662-5.77-20.428-8.643-38.023-8.643c-16.285,0-29.588,3.235-39.432,9.633     c-9.482,6.126-14.104,13.186-14.104,21.558c0,5.119,1.49,9.394,4.559,13.07c3.223,3.945,7.787,7.33,13.57,10.197     c5.969,2.965,12.143,5.354,18.314,7.028c6.322,1.734,16.914,4.337,31.496,7.659c18.432,3.886,35.342,8.284,50.314,13.036     c15.18,4.753,28.248,10.645,38.982,17.555c10.885,7.026,19.506,15.998,25.65,26.766c6.141,10.857,9.248,24.163,9.248,39.655     C391.197,334.351,385.83,351.25,375.275,366.021L375.275,366.021z M375.275,366.021" style="fill:#FCFCFC;"/></g></g></g><g id="Layer_1"/></svg>